<?xml version="1.0" encoding="UTF-8"?>
<svg xmlns="http://www.w3.org/2000/svg" version="1.1" viewBox="0 0 497.28 64.78">
  <defs>
    <style>
      .cls-1 {
        fill: #1c1d1f;
      }

      .cls-2 {
        fill: #0076d6;
      }
    </style>
  </defs>
  <!-- Generator: Adobe Illustrator 28.7.1, SVG Export Plug-In . SVG Version: 1.2.0 Build 142)  -->
  <g>
    <g id="Layer_1">
      <g id="Layer_1-2" data-name="Layer_1">
        <g>
          <g>
            <path class="cls-1" d="M0,32.57v-.18C0,14.24,13.88,0,32.74,0c12.11,0,20.12,4.84,25.61,11.83.46.58.34,1.44-.25,1.89l-10.91,8.44c-.57.44-1.38.35-1.86-.2-3.37-3.81-7.28-6.31-12.78-6.31-8.72,0-14.86,7.47-14.86,16.55v.18c0,9.34,6.14,16.64,14.86,16.64,6.03,0,9.76-2.61,13.26-6.61.46-.53,1.24-.64,1.82-.23l10.85,7.73c.62.44.76,1.32.3,1.92-5.79,7.52-13.6,12.95-26.66,12.95C14.32,64.78,0,51.17,0,32.57h0Z"/>
            <path class="cls-1" d="M285.52,32.57v-.18c0-18.15,13.88-32.39,32.74-32.39,12.11,0,20.12,4.84,25.61,11.83.46.58.34,1.44-.25,1.89l-10.91,8.44c-.57.44-1.38.35-1.86-.2-3.37-3.81-7.28-6.31-12.78-6.31-8.72,0-14.86,7.47-14.86,16.55v.18c0,9.34,6.14,16.64,14.86,16.64,6.03,0,9.76-2.61,13.26-6.61.46-.53,1.24-.64,1.82-.23l10.85,7.73c.62.44.76,1.32.3,1.92-5.79,7.52-13.6,12.95-26.66,12.95-17.8,0-32.12-13.61-32.12-32.21h0Z"/>
            <path class="cls-1" d="M237.86,47.5v-7.17c0-.75.61-1.35,1.35-1.35h18.5c.54,0,1.03-.32,1.24-.81l4.75-10.9c.39-.89-.27-1.89-1.24-1.89h-23.25c-.75,0-1.35-.61-1.35-1.35v-6.81c0-.75.61-1.35,1.35-1.35h24.42c.54,0,1.03-.32,1.24-.81l5.17-11.88c.39-.89-.27-1.89-1.24-1.89h-46.67c-.75,0-1.35.61-1.35,1.35v21.4c0,.75-.61,1.35-1.35,1.35h-2.38c-.54,0-1.03.32-1.24.81l-4.74,10.9c-.39.89.27,1.89,1.24,1.89h7.13c.75,0,1.35.61,1.35,1.35v21.85c0,.75.61,1.35,1.35,1.35h41.95c.54,0,1.03-.32,1.24-.81l5.17-11.89c.39-.89-.26-1.89-1.24-1.89l-30.04-.08c-.75,0-1.35-.61-1.35-1.35v-.02Z"/>
            <path class="cls-1" d="M95.87,47.5v-7.17c0-.75.61-1.35,1.35-1.35h18.5c.54,0,1.03-.32,1.24-.81l4.75-10.9c.39-.89-.27-1.89-1.24-1.89h-23.25c-.75,0-1.35-.61-1.35-1.35v-6.81c0-.75.61-1.35,1.35-1.35h24.42c.54,0,1.03-.32,1.24-.81l5.17-11.88c.39-.89-.27-1.89-1.24-1.89h-46.67c-.75,0-1.35.61-1.35,1.35v21.4c0,.75-.61,1.35-1.35,1.35h-2.38c-.54,0-1.03.32-1.24.81l-4.74,10.9c-.39.89.27,1.89,1.24,1.89h7.13c.75,0,1.35.61,1.35,1.35v21.85c0,.75.61,1.35,1.35,1.35h41.95c.54,0,1.03-.32,1.24-.81l5.17-11.89c.39-.89-.26-1.89-1.24-1.89l-30.04-.08c-.75,0-1.35-.61-1.35-1.35v-.02Z"/>
            <path class="cls-1" d="M199.75,1.25h-48.43c-.54,0-1.03.32-1.24.81l-5.4,12.42c-.39.89.27,1.89,1.24,1.89h16.89c.75,0,1.35.61,1.35,1.35v44.45c0,.75.61,1.35,1.35,1.35h14.55c.75,0,1.35-.61,1.35-1.35V17.72c0-.75.61-1.35,1.35-1.35h11.57c.54,0,1.03-.32,1.24-.81l5.4-12.42c.39-.89-.27-1.89-1.24-1.89h.02Z"/>
          </g>
          <g>
            <g>
              <path class="cls-2" d="M381.06,4.92h27.63c.75,0,1.35.61,1.35,1.35v6.13c0,.75-.61,1.35-1.35,1.35h-17.29c-.75,0-1.35.61-1.35,1.35v3.06c0,.75.61,1.35,1.35,1.35h13.33c.75,0,1.35.61,1.35,1.35v5.54c0,.75-.61,1.35-1.35,1.35h-13.33c-.75,0-1.35.61-1.35,1.35v3.27c0,.75.61,1.35,1.35,1.35h17.56c.75,0,1.35.61,1.35,1.35v6.18c0,.75-.61,1.35-1.35,1.35h-27.9c-.75,0-1.35-.61-1.35-1.35V6.23c0-.75.61-1.35,1.35-1.35v.04Z"/>
              <path class="cls-2" d="M443.75,42.64h8.24c1.05,0,1.7-1.15,1.16-2.05l-6.48-10.73c-.41-.68-.14-1.57.58-1.91,3.86-1.83,6.71-5.33,6.71-10.73,0-8.49-7.03-12.29-14-12.29h-16.84c-.75,0-1.35.61-1.35,1.35v35.02c0,.75.61,1.35,1.35,1.35h7.64c.75,0,1.35-.61,1.35-1.35v-10.43c0-.75.61-1.35,1.35-1.35h.81c.47,0,.91.25,1.16.65l7.15,11.83c.25.41.68.65,1.16.65h.01ZM432.12,14.52c0-.75.61-1.35,1.35-1.35h4.21c3.81,0,5.75,1.36,5.75,4.05s-1.93,4.05-5.75,4.05h-4.21c-.75,0-1.35-.61-1.35-1.35v-5.39h0Z"/>
              <path class="cls-2" d="M482.2,4.92h-15.75c-.75,0-1.35.61-1.35,1.35v35.02c0,.75.61,1.35,1.35,1.35h7.64c.75,0,1.35-.61,1.35-1.35v-8.64c0-.75.61-1.35,1.35-1.35h5.41c7.5,0,15.08-4.08,15.08-13.19s-7.57-13.19-15.08-13.19h0ZM479.91,23.05h-3.13c-.75,0-1.35-.61-1.35-1.35v-7.18c0-.75.61-1.35,1.35-1.35h3.13c4.53,0,6.83,1.66,6.83,4.94s-2.3,4.94-6.83,4.94Z"/>
            </g>
            <path class="cls-2" d="M495.21,52.61h-114.61c-.54,0-1.03.32-1.24.81l-1.98,4.54c-.39.89.27,1.89,1.24,1.89h114.61c.54,0,1.03-.32,1.24-.81l1.98-4.54c.39-.89-.27-1.89-1.24-1.89Z"/>
          </g>
        </g>
      </g>
    </g>
  </g>
</svg>